# xmcd
#
# Track frame offsets:
#	150
#	12577
#	26766
#	41159
#	56867
#	68042
#	87392
#	98699
#	106446
#	114663
#	122060
#	143372
#	157708
#	169130
#	185721
#	205322
#
# Disc length: 3043 seconds
#
# Revision: 0
# Processed by: cddbd v1.5.2PL0 Copyright (c) Steve Scherf et al.
# Submitted via: EZCDAudioConverter 3.1.5.1
#
DISCID=de0be110
DTITLE=Nana Mouskouri  - Live At Odeon Herodus Atticus, Athens, 1984
DYEAR=2010
DGENRE=Country
TTITLE0=Eisagogi
TTITLE1=Fidaki
TTITLE2=Tora Pou Pas Stin Xenitia
TTITLE3=Pame Mia Volta Sto Feggari
TTITLE4=To Feggari Einai Kokkino
TTITLE5=Vale Ton Ilio Synoro
TTITLE6=Nayti Gero - Nayti
TTITLE7=To Kyparissaki
TTITLE8=Sto Lavrio Ginete Horos
TTITLE9=Irini
TTITLE10=Den Itan Nisi
TTITLE11=Aspri Mera
TTITLE12=Mia Fora Kai Ena Kairo
TTITLE13=Odos Oneiron
TTITLE14=Hartino To Feggaraki
TTITLE15=Casta Diva From Norma De Bellini
EXTD=
EXTT0=
EXTT1=
EXTT2=
EXTT3=
EXTT4=
EXTT5=
EXTT6=
EXTT7=
EXTT8=
EXTT9=
EXTT10=
EXTT11=
EXTT12=
EXTT13=
EXTT14=
EXTT15=
PLAYORDER=
